# xmcd CD database file
#
# Track frame offsets:
#	150
#	20315
#	35835
#	60622
#	80002
#	98500
#	111517
#	127582
#	143165
#	164307
#	180932
#	201032
#	218547
#	242622
#	262855
#
# Disc length: 3726 seconds
#
# Revision: 0
# Processed by: cddbd v1.5PL3 Copyright (c) Steve Scherf et al.
# Submitted via: CDex 1.50
#
DISCID=bc0e8c0f
DTITLE=Various Artist - Southen Shades of Blue Volume II
DYEAR=1997
DGENRE=Blues
TTITLE0=I'm In The Mood For Blues - Ernie Johnson
TTITLE1=Silky Silk - James Peterson
TTITLE2=Man Of The House - Artie White
TTITLE3=Dangerous - Bobby Rush
TTITLE4=Meat Man - Poonanny
TTITLE5=Baby Let Me Kiss You - King Floyd
TTITLE6=Trouble Blues - McKinley Mitchell
TTITLE7=All In The Open Now - Artie White
TTITLE8=Packin' Heavy - Poonanny
TTITLE9=Here's Your Mop Mr. Johnson - Keri Leigh
TTITLE10=Different Name - The Beat Daddys
TTITLE11=Sittin' Here With Nothing - Big Mike Griffin
TTITLE12=Went Too Far Stayed Too Long - James Peterson
TTITLE13=Can't Save A Cent - Bobby Rush
TTITLE14=Train In The Distance - The Beat Daddys
EXTD=YEAR: 1997
EXTT0=
EXTT1=
EXTT2=
EXTT3=
EXTT4=
EXTT5=
EXTT6=
EXTT7=
EXTT8=
EXTT9=
EXTT10=
EXTT11=
EXTT12=
EXTT13=
EXTT14=
PLAYORDER=
